<svg width="300" height="397" fill="none" xmlns="http://www.w3.org/2000/svg"><path d="m56.546 56-4.592-5.088V56h-1.456V44.848h1.456v5.168l4.608-5.168h1.84l-5.056 5.584L58.45 56h-1.904Zm2.986-4.416c0-.896.181-1.68.544-2.352a3.95 3.95 0 0 1 1.488-1.584c.64-.373 1.35-.56 2.128-.56.768 0 1.434.165 2 .496.565.33.986.747 1.264 1.248v-1.6h1.472V56h-1.472v-1.632c-.288.512-.72.939-1.296 1.28-.566.33-1.227.496-1.984.496a3.974 3.974 0 0 1-2.112-.576 4.04 4.04 0 0 1-1.488-1.616c-.363-.693-.544-1.483-.544-2.368Zm7.424.016c0-.661-.134-1.237-.4-1.728a2.754 2.754 0 0 0-1.088-1.12 2.854 2.854 0 0 0-1.488-.4c-.544 0-1.04.128-1.488.384-.448.256-.806.63-1.072 1.12-.267.49-.4 1.067-.4 1.728 0 .672.133 1.259.4 1.76a2.9 2.9 0 0 0 1.072 1.136c.448.256.944.384 1.488.384s1.04-.128 1.488-.384a2.864 2.864 0 0 0 1.088-1.136c.266-.501.4-1.083.4-1.744Zm7.756 4.544a4.534 4.534 0 0 1-2.24-.56A4.07 4.07 0 0 1 70.904 54c-.373-.693-.56-1.493-.56-2.4 0-.896.192-1.685.576-2.368a4.009 4.009 0 0 1 1.6-1.584c.672-.373 1.424-.56 2.256-.56.832 0 1.584.187 2.256.56.672.363 1.2.885 1.584 1.568.395.683.592 1.477.592 2.384 0 .907-.202 1.707-.608 2.4a4.12 4.12 0 0 1-1.616 1.584c-.682.373-1.44.56-2.272.56Zm0-1.28c.523 0 1.014-.123 1.472-.368a2.749 2.749 0 0 0 1.104-1.104c.288-.49.432-1.088.432-1.792s-.138-1.301-.416-1.792c-.277-.49-.64-.853-1.088-1.088a2.983 2.983 0 0 0-1.456-.368c-.533 0-1.024.123-1.472.368-.437.235-.79.597-1.056 1.088-.266.49-.4 1.088-.4 1.792 0 .715.128 1.317.384 1.808.267.49.619.859 1.056 1.104.438.235.918.352 1.44.352ZM82.58 44.16V56h-1.456V44.16h1.456Zm3.233 1.648a.958.958 0 0 1-.704-.288.958.958 0 0 1-.288-.704c0-.277.096-.512.288-.704a.958.958 0 0 1 .704-.288c.267 0 .49.096.672.288a.958.958 0 0 1 .288.704.958.958 0 0 1-.288.704.887.887 0 0 1-.672.288Zm.704 1.424V56H85.06v-8.768h1.456Zm6.754-.16c1.066 0 1.93.325 2.592.976.661.64.992 1.568.992 2.784V56h-1.44v-4.96c0-.875-.219-1.541-.656-2-.438-.47-1.035-.704-1.792-.704-.768 0-1.382.24-1.84.72-.448.48-.672 1.179-.672 2.096V56h-1.456v-8.768h1.456v1.248a2.903 2.903 0 0 1 1.168-1.04 3.699 3.699 0 0 1 1.648-.368ZM61.424 132.112c-.736 0-1.397-.128-1.984-.384-.576-.267-1.03-.629-1.36-1.088a2.824 2.824 0 0 1-.512-1.616h1.552c.054.523.267.965.64 1.328.384.352.939.528 1.664.528.694 0 1.238-.171 1.632-.512.406-.352.608-.8.608-1.344 0-.427-.117-.773-.352-1.04a2.249 2.249 0 0 0-.88-.608 13.671 13.671 0 0 0-1.424-.448c-.736-.192-1.328-.384-1.776-.576a2.952 2.952 0 0 1-1.136-.896c-.31-.416-.464-.971-.464-1.664 0-.608.155-1.147.464-1.616.31-.469.742-.832 1.296-1.088.566-.256 1.21-.384 1.936-.384 1.046 0 1.899.261 2.56.784.672.523 1.05 1.216 1.136 2.08h-1.6c-.053-.427-.277-.8-.672-1.12-.394-.331-.917-.496-1.568-.496-.608 0-1.104.16-1.488.48-.384.309-.576.747-.576 1.312 0 .405.112.736.336.992.235.256.518.453.848.592.342.128.816.277 1.424.448.736.203 1.328.405 1.776.608.448.192.832.496 1.152.912.32.405.48.96.48 1.664 0 .544-.144 1.056-.432 1.536-.288.48-.714.869-1.28 1.168-.565.299-1.232.448-2 .448Zm6.607-10.304a.958.958 0 0 1-.704-.288.958.958 0 0 1-.288-.704c0-.277.096-.512.288-.704a.958.958 0 0 1 .704-.288c.266 0 .49.096.672.288a.958.958 0 0 1 .288.704.958.958 0 0 1-.288.704.888.888 0 0 1-.672.288Zm.704 1.424V132h-1.456v-8.768h1.456Zm5.745 7.424 2.72-7.424h1.552L75.312 132h-1.696l-3.44-8.768h1.568l2.736 7.424Zm5.161-3.072c0-.896.181-1.68.544-2.352a3.948 3.948 0 0 1 1.488-1.584 4.15 4.15 0 0 1 2.128-.56c.768 0 1.435.165 2 .496.566.331.987.747 1.264 1.248v-1.6h1.472V132h-1.472v-1.632c-.288.512-.72.939-1.296 1.28-.565.331-1.227.496-1.984.496a3.975 3.975 0 0 1-2.112-.576 4.043 4.043 0 0 1-1.488-1.616c-.362-.693-.544-1.483-.544-2.368Zm7.424.016c0-.661-.133-1.237-.4-1.728a2.751 2.751 0 0 0-1.088-1.12 2.851 2.851 0 0 0-1.488-.4c-.544 0-1.04.128-1.488.384a2.784 2.784 0 0 0-1.072 1.12c-.266.491-.4 1.067-.4 1.728 0 .672.133 1.259.4 1.76a2.9 2.9 0 0 0 1.072 1.136c.448.256.944.384 1.488.384s1.04-.128 1.488-.384a2.863 2.863 0 0 0 1.088-1.136c.267-.501.4-1.083.4-1.744Zm8.829 4.4-3.44-3.872V132h-1.456v-11.84h1.456v6.96l3.376-3.888h2.032l-4.128 4.368 4.144 4.4h-1.984ZM31.204 199.416c0-1.088.245-2.064.736-2.928a5.35 5.35 0 0 1 2-2.048c.853-.491 1.797-.736 2.832-.736 1.216 0 2.277.293 3.184.88.906.587 1.568 1.419 1.984 2.496h-1.744c-.31-.672-.758-1.189-1.344-1.552-.576-.363-1.27-.544-2.08-.544-.779 0-1.478.181-2.096.544a3.795 3.795 0 0 0-1.456 1.552c-.352.661-.528 1.44-.528 2.336 0 .885.176 1.664.528 2.336a3.821 3.821 0 0 0 1.456 1.536c.618.363 1.317.544 2.096.544.81 0 1.504-.176 2.08-.528.586-.363 1.034-.88 1.344-1.552h1.744c-.416 1.067-1.078 1.893-1.984 2.48-.907.576-1.968.864-3.184.864-1.035 0-1.979-.24-2.832-.72a5.384 5.384 0 0 1-2-2.032c-.491-.864-.736-1.84-.736-2.928Zm12.359 1.168c0-.896.181-1.68.544-2.352a3.948 3.948 0 0 1 1.488-1.584 4.15 4.15 0 0 1 2.128-.56c.768 0 1.435.165 2 .496.565.331.987.747 1.264 1.248v-1.6h1.472V205h-1.472v-1.632c-.288.512-.72.939-1.296 1.28-.565.331-1.227.496-1.984.496a3.974 3.974 0 0 1-2.112-.576 4.043 4.043 0 0 1-1.488-1.616c-.363-.693-.544-1.483-.544-2.368Zm7.424.016c0-.661-.133-1.237-.4-1.728a2.752 2.752 0 0 0-1.088-1.12 2.851 2.851 0 0 0-1.488-.4c-.544 0-1.04.128-1.488.384a2.784 2.784 0 0 0-1.072 1.12c-.267.491-.4 1.067-.4 1.728 0 .672.133 1.259.4 1.76a2.9 2.9 0 0 0 1.072 1.136c.448.256.944.384 1.488.384s1.04-.128 1.488-.384a2.864 2.864 0 0 0 1.088-1.136c.267-.501.4-1.083.4-1.744Zm5.389-7.44V205H54.92v-11.84h1.456Zm1.937 7.44c0-.907.181-1.696.544-2.368a3.914 3.914 0 0 1 1.504-1.584c.65-.373 1.392-.56 2.224-.56 1.077 0 1.963.261 2.656.784.704.523 1.168 1.248 1.392 2.176h-1.568a2.238 2.238 0 0 0-.88-1.264c-.427-.309-.96-.464-1.6-.464-.832 0-1.504.288-2.016.864-.512.565-.768 1.371-.768 2.416 0 1.056.256 1.872.768 2.448.512.576 1.184.864 2.016.864.64 0 1.173-.149 1.6-.448.427-.299.72-.725.88-1.28h1.568c-.235.896-.704 1.616-1.408 2.16-.704.533-1.584.8-2.64.8-.832 0-1.573-.187-2.224-.56A3.914 3.914 0 0 1 58.857 203c-.363-.683-.544-1.483-.544-2.4Zm11.015-5.792a.958.958 0 0 1-.704-.288.958.958 0 0 1-.288-.704c0-.277.096-.512.288-.704a.958.958 0 0 1 .704-.288c.266 0 .49.096.672.288a.958.958 0 0 1 .288.704.958.958 0 0 1-.288.704.888.888 0 0 1-.672.288Zm.704 1.424V205h-1.456v-8.768h1.456Zm10.257 0V205h-1.456v-1.296c-.277.448-.666.8-1.168 1.056a3.602 3.602 0 0 1-1.632.368c-.682 0-1.296-.139-1.84-.416a3.186 3.186 0 0 1-1.296-1.28c-.31-.565-.464-1.253-.464-2.064v-5.136h1.44v4.944c0 .864.219 1.531.656 2 .438.459 1.035.688 1.792.688.779 0 1.392-.24 1.84-.72.448-.48.672-1.179.672-2.096v-4.816h1.456Zm13.003-.16c.682 0 1.29.144 1.824.432.533.277.954.699 1.264 1.264.309.565.464 1.253.464 2.064V205h-1.44v-4.96c0-.875-.219-1.541-.656-2-.427-.469-1.008-.704-1.744-.704-.758 0-1.36.245-1.808.736-.448.48-.672 1.179-.672 2.096V205h-1.44v-4.96c0-.875-.219-1.541-.656-2-.427-.469-1.008-.704-1.744-.704-.758 0-1.36.245-1.808.736-.448.48-.672 1.179-.672 2.096V205h-1.456v-8.768h1.456v1.264a2.886 2.886 0 0 1 1.152-1.056 3.567 3.567 0 0 1 1.616-.368c.736 0 1.386.165 1.952.496.565.331.986.816 1.264 1.456a2.874 2.874 0 0 1 1.216-1.44 3.585 3.585 0 0 1 1.888-.512ZM3.813 279.816h3.904V281h-5.36v-11.152h1.456v9.968Zm6.202-9.008a.958.958 0 0 1-.704-.288.958.958 0 0 1-.288-.704c0-.277.096-.512.288-.704a.958.958 0 0 1 .704-.288c.267 0 .49.096.672.288a.958.958 0 0 1 .288.704.958.958 0 0 1-.288.704.888.888 0 0 1-.672.288Zm.704 1.424V281H9.263v-8.768h1.456Zm1.938 4.368c0-.907.181-1.696.544-2.368a3.913 3.913 0 0 1 1.504-1.584c.65-.373 1.392-.56 2.224-.56 1.077 0 1.962.261 2.656.784.704.523 1.168 1.248 1.392 2.176h-1.568a2.239 2.239 0 0 0-.88-1.264c-.427-.309-.96-.464-1.6-.464-.832 0-1.504.288-2.016.864-.512.565-.768 1.371-.768 2.416 0 1.056.256 1.872.768 2.448.512.576 1.184.864 2.016.864.64 0 1.173-.149 1.6-.448.426-.299.72-.725.88-1.28h1.568c-.235.896-.704 1.616-1.408 2.16-.704.533-1.584.8-2.64.8-.832 0-1.574-.187-2.224-.56A3.913 3.913 0 0 1 13.2 279c-.363-.683-.544-1.483-.544-2.4Zm14.087 4.544a4.537 4.537 0 0 1-2.24-.56A4.066 4.066 0 0 1 22.934 279c-.373-.693-.56-1.493-.56-2.4 0-.896.192-1.685.576-2.368a4.013 4.013 0 0 1 1.6-1.584c.673-.373 1.425-.56 2.257-.56.832 0 1.584.187 2.256.56.671.363 1.2.885 1.584 1.568.394.683.591 1.477.591 2.384 0 .907-.202 1.707-.608 2.4a4.114 4.114 0 0 1-1.616 1.584 4.66 4.66 0 0 1-2.271.56Zm0-1.28c.522 0 1.013-.123 1.471-.368a2.744 2.744 0 0 0 1.105-1.104c.288-.491.431-1.088.431-1.792s-.138-1.301-.416-1.792c-.277-.491-.64-.853-1.088-1.088a2.986 2.986 0 0 0-1.456-.368c-.533 0-1.024.123-1.471.368-.438.235-.79.597-1.056 1.088-.267.491-.4 1.088-.4 1.792 0 .715.127 1.317.383 1.808.267.491.62.859 1.056 1.104.438.235.918.352 1.44.352Zm7.866-6.208a2.808 2.808 0 0 1 1.088-1.168c.48-.277 1.061-.416 1.744-.416v1.504h-.384c-1.632 0-2.448.885-2.448 2.656V281h-1.456v-8.768h1.456v1.424Zm5.265-2.848a.958.958 0 0 1-.704-.288.958.958 0 0 1-.288-.704c0-.277.096-.512.288-.704a.958.958 0 0 1 .704-.288c.266 0 .49.096.672.288a.958.958 0 0 1 .288.704.958.958 0 0 1-.288.704.887.887 0 0 1-.672.288Zm.704 1.424V281h-1.456v-8.768h1.456Zm1.937 4.368c0-.907.181-1.696.544-2.368a3.914 3.914 0 0 1 1.504-1.584c.65-.373 1.392-.56 2.224-.56 1.078 0 1.963.261 2.656.784.704.523 1.168 1.248 1.392 2.176h-1.568a2.238 2.238 0 0 0-.88-1.264c-.426-.309-.96-.464-1.6-.464-.832 0-1.504.288-2.016.864-.512.565-.768 1.371-.768 2.416 0 1.056.256 1.872.768 2.448.512.576 1.184.864 2.016.864.64 0 1.174-.149 1.6-.448.427-.299.72-.725.88-1.28h1.568c-.234.896-.704 1.616-1.408 2.16-.704.533-1.584.8-2.64.8-.832 0-1.573-.187-2.224-.56A3.914 3.914 0 0 1 43.06 279c-.363-.683-.544-1.483-.544-2.4Zm18.263-.32c0 .277-.016.571-.048.88h-7.008c.053.864.346 1.541.88 2.032.544.48 1.2.72 1.968.72.63 0 1.152-.144 1.568-.432.426-.299.725-.693.896-1.184h1.568a3.806 3.806 0 0 1-1.408 2.064c-.704.523-1.579.784-2.624.784-.832 0-1.579-.187-2.24-.56A3.988 3.988 0 0 1 52.795 279c-.373-.693-.56-1.493-.56-2.4 0-.907.181-1.701.544-2.384a3.78 3.78 0 0 1 1.52-1.568c.661-.373 1.419-.56 2.272-.56.832 0 1.568.181 2.208.544.64.363 1.13.864 1.472 1.504.352.629.528 1.344.528 2.144Zm-1.504-.304c0-.555-.123-1.029-.368-1.424a2.32 2.32 0 0 0-1.008-.912 3.01 3.01 0 0 0-1.392-.32c-.736 0-1.365.235-1.888.704-.512.469-.806 1.12-.88 1.952h5.536Zm9.147-2.32a2.808 2.808 0 0 1 1.088-1.168c.48-.277 1.062-.416 1.744-.416v1.504h-.384c-1.632 0-2.448.885-2.448 2.656V281h-1.456v-8.768h1.456v1.424Zm8.337 7.488a4.537 4.537 0 0 1-2.24-.56A4.066 4.066 0 0 1 72.951 279c-.373-.693-.56-1.493-.56-2.4 0-.896.192-1.685.576-2.368a4.013 4.013 0 0 1 1.6-1.584c.672-.373 1.424-.56 2.256-.56.832 0 1.584.187 2.256.56.672.363 1.2.885 1.584 1.568.395.683.592 1.477.592 2.384 0 .907-.203 1.707-.608 2.4a4.114 4.114 0 0 1-1.616 1.584 4.66 4.66 0 0 1-2.272.56Zm0-1.28c.523 0 1.013-.123 1.472-.368a2.744 2.744 0 0 0 1.104-1.104c.288-.491.432-1.088.432-1.792s-.138-1.301-.416-1.792c-.277-.491-.64-.853-1.088-1.088a2.986 2.986 0 0 0-1.456-.368c-.533 0-1.024.123-1.472.368-.437.235-.79.597-1.056 1.088-.266.491-.4 1.088-.4 1.792 0 .715.128 1.317.384 1.808.267.491.619.859 1.056 1.104.438.235.918.352 1.44.352Zm10.234 1.28a4.537 4.537 0 0 1-2.24-.56A4.066 4.066 0 0 1 83.187 279c-.374-.693-.56-1.493-.56-2.4 0-.896.191-1.685.575-2.368a4.013 4.013 0 0 1 1.6-1.584c.672-.373 1.424-.56 2.257-.56.831 0 1.583.187 2.255.56.672.363 1.2.885 1.584 1.568.395.683.593 1.477.593 2.384 0 .907-.203 1.707-.608 2.4a4.114 4.114 0 0 1-1.617 1.584 4.66 4.66 0 0 1-2.272.56Zm0-1.28c.523 0 1.014-.123 1.473-.368a2.744 2.744 0 0 0 1.104-1.104c.288-.491.431-1.088.431-1.792s-.138-1.301-.416-1.792c-.277-.491-.64-.853-1.087-1.088a2.986 2.986 0 0 0-1.457-.368c-.533 0-1.023.123-1.471.368-.438.235-.79.597-1.056 1.088-.267.491-.4 1.088-.4 1.792 0 .715.127 1.317.383 1.808.267.491.62.859 1.056 1.104.438.235.918.352 1.44.352Zm8.187-6.432v5.168c0 .427.09.731.272.912.181.171.496.256.944.256h1.072V281h-1.312c-.81 0-1.419-.187-1.824-.56-.405-.373-.608-.987-.608-1.84v-5.168h-1.136v-1.2h1.136v-2.208h1.456v2.208h2.288v1.2H95.18ZM35.205 342.848v1.184h-3.04V354H30.71v-9.968h-3.056v-1.184h7.552Zm9.569 2.384V354h-1.456v-1.296c-.278.448-.667.8-1.168 1.056a3.602 3.602 0 0 1-1.632.368c-.683 0-1.296-.139-1.84-.416a3.186 3.186 0 0 1-1.296-1.28c-.31-.565-.464-1.253-.464-2.064v-5.136h1.44v4.944c0 .864.218 1.531.656 2 .437.459 1.034.688 1.792.688.778 0 1.392-.24 1.84-.72.448-.48.672-1.179.672-2.096v-4.816h1.456Zm3.914 1.424a2.808 2.808 0 0 1 1.088-1.168c.48-.277 1.061-.416 1.744-.416v1.504h-.384c-1.632 0-2.448.885-2.448 2.656V354h-1.456v-8.768h1.456v1.424Zm15.057-1.584c.682 0 1.29.144 1.824.432.533.277.954.699 1.264 1.264.31.565.464 1.253.464 2.064V354h-1.44v-4.96c0-.875-.219-1.541-.656-2-.427-.469-1.008-.704-1.744-.704-.758 0-1.36.245-1.808.736-.448.48-.672 1.179-.672 2.096V354h-1.44v-4.96c0-.875-.219-1.541-.656-2-.427-.469-1.008-.704-1.744-.704-.758 0-1.36.245-1.808.736-.448.48-.672 1.179-.672 2.096V354H53.2v-8.768h1.456v1.264a2.886 2.886 0 0 1 1.152-1.056 3.566 3.566 0 0 1 1.616-.368c.736 0 1.386.165 1.952.496.565.331.986.816 1.264 1.456a2.873 2.873 0 0 1 1.216-1.44 3.585 3.585 0 0 1 1.888-.512Zm13.94 4.208c0 .277-.016.571-.048.88H70.63c.053.864.347 1.541.88 2.032.544.48 1.2.72 1.968.72.63 0 1.152-.144 1.568-.432.427-.299.725-.693.896-1.184h1.568a3.805 3.805 0 0 1-1.408 2.064c-.704.523-1.579.784-2.624.784-.832 0-1.579-.187-2.24-.56A3.99 3.99 0 0 1 69.701 352c-.373-.693-.56-1.493-.56-2.4 0-.907.181-1.701.544-2.384a3.782 3.782 0 0 1 1.52-1.568c.662-.373 1.419-.56 2.272-.56.832 0 1.568.181 2.208.544.64.363 1.13.864 1.472 1.504.352.629.528 1.344.528 2.144Zm-1.504-.304c0-.555-.123-1.029-.368-1.424a2.32 2.32 0 0 0-1.008-.912 3.01 3.01 0 0 0-1.392-.32c-.736 0-1.365.235-1.888.704-.512.469-.805 1.12-.88 1.952h5.536Zm4.882-2.32a2.808 2.808 0 0 1 1.088-1.168c.48-.277 1.061-.416 1.744-.416v1.504h-.384c-1.632 0-2.448.885-2.448 2.656V354h-1.456v-8.768h1.456v1.424Zm5.265-2.848a.958.958 0 0 1-.704-.288.958.958 0 0 1-.288-.704c0-.277.096-.512.288-.704a.958.958 0 0 1 .704-.288c.266 0 .49.096.672.288a.958.958 0 0 1 .288.704.958.958 0 0 1-.288.704.888.888 0 0 1-.672.288Zm.704 1.424V354h-1.456v-8.768h1.456Zm1.937 4.368c0-.907.182-1.696.544-2.368a3.913 3.913 0 0 1 1.504-1.584c.65-.373 1.392-.56 2.224-.56 1.078 0 1.963.261 2.656.784.704.523 1.168 1.248 1.392 2.176h-1.568a2.239 2.239 0 0 0-.88-1.264c-.426-.309-.96-.464-1.6-.464-.832 0-1.504.288-2.016.864-.512.565-.768 1.371-.768 2.416 0 1.056.256 1.872.768 2.448.512.576 1.184.864 2.016.864.64 0 1.174-.149 1.6-.448.427-.299.72-.725.88-1.28h1.568c-.234.896-.704 1.616-1.408 2.16-.704.533-1.584.8-2.64.8-.832 0-1.573-.187-2.224-.56A3.913 3.913 0 0 1 89.513 352c-.362-.683-.544-1.483-.544-2.4Z" fill="#333"/><g clip-path="url('#clip0_21779_249')"><path fill-rule="evenodd" clip-rule="evenodd" d="M164.868 14.875c143.911-19.112 226.858-20.542 380.265 0l.867.116v68.26h-9.073v31.446h-16.192a71.646 71.646 0 0 0-.957 7.029c-.376 4.456-.355 9.756 1.075 13.583 1.523 4.081 5.375 8.439 8.964 11.843a80.414 80.414 0 0 0 4.69 4.104 67.028 67.028 0 0 0 1.874 1.464l.04.03.063.047.026.018.006.005h.001l-.004.006.004-.005.41.299v25.962H546v161.225h-9.073v36.748l-.795.167c-125.899 26.354-206.367 26.395-360.626.007l-.832-.142v-36.78H164V179.082h10.674v-26.037l.508-.287c.869-.492 1.761-.975 2.661-1.461 2.799-1.513 5.67-3.065 8.161-5.071 3.239-2.607 5.712-5.897 6.29-10.687l.001-.01.002-.011c.928-6.508 1.063-10.96.085-20.821h-17.708V83.251H164V14.99l.868-.115Zm11.806 325.544c146.733 15.591 225.597 15.607 358.253.013v34.998c-124.925 26.08-205.057 26.126-358.253-.031v-34.98Zm17.718-225.722h324.309a73.54 73.54 0 0 0-.916 6.861c-.248 2.939-.343 6.382.066 9.607H194.824c.402-4.595.299-9.037-.432-16.468Zm.228 18.468h323.558c.204.994.467 1.95.801 2.844 1.696 4.543 5.85 9.169 9.462 12.594a82.508 82.508 0 0 0 6.322 5.401l.164.124v25.579c-139.368 6.755-218.415 6.24-358.253-.081v-25.412c.64-.356 1.306-.716 1.988-1.084l.004-.002.001-.001.008-.004.003-.002c2.831-1.53 5.932-3.205 8.581-5.337 3.514-2.829 6.359-6.549 7.019-11.994.129-.907.243-1.776.342-2.625Zm325.296-20.468h15.011V83.251H176.674v29.446h343.242ZM175.674 81.251H544v-64.51C391.641-3.613 308.94-2.202 166 16.742v64.51h9.674Zm-.045 100.329.022-.498H166v157.225h9.727l.053.006c147.723 15.738 226.528 15.747 360.03.001l.058-.007H544V181.082h-6.447l.024.498c-141.348 6.905-220.607 6.404-361.948 0Z" fill="#344F10"/><circle cx="151.5" cy="50.502" r="2.5" transform="rotate(-180 151.5 50.502)" fill="#333"/><circle cx="151.5" cy="123.502" r="2.5" transform="rotate(-180 151.5 123.502)" fill="#333"/><circle cx="151.5" cy="199.502" r="2.5" fill="#333"/><path fill="#333" d="M150 51h-32v-1h32zM150 124h-32v-1h32zM150 200h-32v-1h32z"/><circle cx="151.5" cy="199.502" r="2.5" fill="#333"/><circle cx="151.5" cy="272.502" r="2.5" fill="#333"/><path fill="#333" d="M150 273h-32v-1h32z"/><circle cx="151.5" cy="272.502" r="2.5" fill="#333"/><circle cx="151.5" cy="272.502" r="2.5" fill="#333"/><circle cx="151.5" cy="272.502" r="2.5" fill="#333"/><circle cx="151.5" cy="344.502" r="2.5" fill="#333"/><path fill="#333" d="M150 345h-32v-1h32z"/><circle cx="151.5" cy="344.502" r="2.5" fill="#333"/><circle cx="151.5" cy="344.502" r="2.5" fill="#333"/><circle cx="151.5" cy="344.502" r="2.5" fill="#333"/></g><defs><clipPath id="clip0_21779_249"><path fill="#fff" transform="translate(118)" d="M0 0h182v397H0z"/></clipPath></defs></svg>